%TF.GenerationSoftware,KiCad,Pcbnew,9.0.7*%
%TF.CreationDate,2026-04-13T12:25:22-04:00*%
%TF.ProjectId,car,6361722e-6b69-4636-9164-5f7063625858,rev?*%
%TF.SameCoordinates,Original*%
%TF.FileFunction,Legend,Top*%
%TF.FilePolarity,Positive*%
%FSLAX46Y46*%
G04 Gerber Fmt 4.6, Leading zero omitted, Abs format (unit mm)*
G04 Created by KiCad (PCBNEW 9.0.7) date 2026-04-13 12:25:22*
%MOMM*%
%LPD*%
G01*
G04 APERTURE LIST*
%ADD10C,0.150000*%
%ADD11C,0.120000*%
G04 APERTURE END LIST*
D10*
X109409523Y-46961009D02*
X109552380Y-47008628D01*
X109552380Y-47008628D02*
X109599999Y-47056247D01*
X109599999Y-47056247D02*
X109647618Y-47151485D01*
X109647618Y-47151485D02*
X109647618Y-47294342D01*
X109647618Y-47294342D02*
X109599999Y-47389580D01*
X109599999Y-47389580D02*
X109552380Y-47437200D01*
X109552380Y-47437200D02*
X109457142Y-47484819D01*
X109457142Y-47484819D02*
X109076190Y-47484819D01*
X109076190Y-47484819D02*
X109076190Y-46484819D01*
X109076190Y-46484819D02*
X109409523Y-46484819D01*
X109409523Y-46484819D02*
X109504761Y-46532438D01*
X109504761Y-46532438D02*
X109552380Y-46580057D01*
X109552380Y-46580057D02*
X109599999Y-46675295D01*
X109599999Y-46675295D02*
X109599999Y-46770533D01*
X109599999Y-46770533D02*
X109552380Y-46865771D01*
X109552380Y-46865771D02*
X109504761Y-46913390D01*
X109504761Y-46913390D02*
X109409523Y-46961009D01*
X109409523Y-46961009D02*
X109076190Y-46961009D01*
X109933333Y-46484819D02*
X110504761Y-46484819D01*
X110219047Y-47484819D02*
X110219047Y-46484819D01*
X111314285Y-47484819D02*
X110838095Y-47484819D01*
X110838095Y-47484819D02*
X110838095Y-46484819D01*
X112171428Y-47484819D02*
X111600000Y-47484819D01*
X111885714Y-47484819D02*
X111885714Y-46484819D01*
X111885714Y-46484819D02*
X111790476Y-46627676D01*
X111790476Y-46627676D02*
X111695238Y-46722914D01*
X111695238Y-46722914D02*
X111600000Y-46770533D01*
X104602857Y-76624819D02*
X104602857Y-75624819D01*
X104602857Y-75624819D02*
X104936190Y-76339104D01*
X104936190Y-76339104D02*
X105269523Y-75624819D01*
X105269523Y-75624819D02*
X105269523Y-76624819D01*
X105745714Y-76624819D02*
X105745714Y-75624819D01*
X105745714Y-75624819D02*
X105983809Y-75624819D01*
X105983809Y-75624819D02*
X106126666Y-75672438D01*
X106126666Y-75672438D02*
X106221904Y-75767676D01*
X106221904Y-75767676D02*
X106269523Y-75862914D01*
X106269523Y-75862914D02*
X106317142Y-76053390D01*
X106317142Y-76053390D02*
X106317142Y-76196247D01*
X106317142Y-76196247D02*
X106269523Y-76386723D01*
X106269523Y-76386723D02*
X106221904Y-76481961D01*
X106221904Y-76481961D02*
X106126666Y-76577200D01*
X106126666Y-76577200D02*
X105983809Y-76624819D01*
X105983809Y-76624819D02*
X105745714Y-76624819D01*
X106507619Y-76720057D02*
X107269523Y-76720057D01*
X107983809Y-76624819D02*
X107507619Y-76624819D01*
X107507619Y-76624819D02*
X107507619Y-75624819D01*
X108317143Y-76101009D02*
X108650476Y-76101009D01*
X108793333Y-76624819D02*
X108317143Y-76624819D01*
X108317143Y-76624819D02*
X108317143Y-75624819D01*
X108317143Y-75624819D02*
X108793333Y-75624819D01*
X109555238Y-76101009D02*
X109221905Y-76101009D01*
X109221905Y-76624819D02*
X109221905Y-75624819D01*
X109221905Y-75624819D02*
X109698095Y-75624819D01*
X109936191Y-75624819D02*
X110507619Y-75624819D01*
X110221905Y-76624819D02*
X110221905Y-75624819D01*
X111364762Y-76624819D02*
X110793334Y-76624819D01*
X111079048Y-76624819D02*
X111079048Y-75624819D01*
X111079048Y-75624819D02*
X110983810Y-75767676D01*
X110983810Y-75767676D02*
X110888572Y-75862914D01*
X110888572Y-75862914D02*
X110793334Y-75910533D01*
X93463333Y-99481009D02*
X93796666Y-99481009D01*
X93939523Y-100004819D02*
X93463333Y-100004819D01*
X93463333Y-100004819D02*
X93463333Y-99004819D01*
X93463333Y-99004819D02*
X93939523Y-99004819D01*
X94320476Y-99957200D02*
X94463333Y-100004819D01*
X94463333Y-100004819D02*
X94701428Y-100004819D01*
X94701428Y-100004819D02*
X94796666Y-99957200D01*
X94796666Y-99957200D02*
X94844285Y-99909580D01*
X94844285Y-99909580D02*
X94891904Y-99814342D01*
X94891904Y-99814342D02*
X94891904Y-99719104D01*
X94891904Y-99719104D02*
X94844285Y-99623866D01*
X94844285Y-99623866D02*
X94796666Y-99576247D01*
X94796666Y-99576247D02*
X94701428Y-99528628D01*
X94701428Y-99528628D02*
X94510952Y-99481009D01*
X94510952Y-99481009D02*
X94415714Y-99433390D01*
X94415714Y-99433390D02*
X94368095Y-99385771D01*
X94368095Y-99385771D02*
X94320476Y-99290533D01*
X94320476Y-99290533D02*
X94320476Y-99195295D01*
X94320476Y-99195295D02*
X94368095Y-99100057D01*
X94368095Y-99100057D02*
X94415714Y-99052438D01*
X94415714Y-99052438D02*
X94510952Y-99004819D01*
X94510952Y-99004819D02*
X94749047Y-99004819D01*
X94749047Y-99004819D02*
X94891904Y-99052438D01*
X95320476Y-100004819D02*
X95320476Y-99004819D01*
X95320476Y-99004819D02*
X95701428Y-99004819D01*
X95701428Y-99004819D02*
X95796666Y-99052438D01*
X95796666Y-99052438D02*
X95844285Y-99100057D01*
X95844285Y-99100057D02*
X95891904Y-99195295D01*
X95891904Y-99195295D02*
X95891904Y-99338152D01*
X95891904Y-99338152D02*
X95844285Y-99433390D01*
X95844285Y-99433390D02*
X95796666Y-99481009D01*
X95796666Y-99481009D02*
X95701428Y-99528628D01*
X95701428Y-99528628D02*
X95320476Y-99528628D01*
X96225238Y-99004819D02*
X96844285Y-99004819D01*
X96844285Y-99004819D02*
X96510952Y-99385771D01*
X96510952Y-99385771D02*
X96653809Y-99385771D01*
X96653809Y-99385771D02*
X96749047Y-99433390D01*
X96749047Y-99433390D02*
X96796666Y-99481009D01*
X96796666Y-99481009D02*
X96844285Y-99576247D01*
X96844285Y-99576247D02*
X96844285Y-99814342D01*
X96844285Y-99814342D02*
X96796666Y-99909580D01*
X96796666Y-99909580D02*
X96749047Y-99957200D01*
X96749047Y-99957200D02*
X96653809Y-100004819D01*
X96653809Y-100004819D02*
X96368095Y-100004819D01*
X96368095Y-100004819D02*
X96272857Y-99957200D01*
X96272857Y-99957200D02*
X96225238Y-99909580D01*
X97225238Y-99100057D02*
X97272857Y-99052438D01*
X97272857Y-99052438D02*
X97368095Y-99004819D01*
X97368095Y-99004819D02*
X97606190Y-99004819D01*
X97606190Y-99004819D02*
X97701428Y-99052438D01*
X97701428Y-99052438D02*
X97749047Y-99100057D01*
X97749047Y-99100057D02*
X97796666Y-99195295D01*
X97796666Y-99195295D02*
X97796666Y-99290533D01*
X97796666Y-99290533D02*
X97749047Y-99433390D01*
X97749047Y-99433390D02*
X97177619Y-100004819D01*
X97177619Y-100004819D02*
X97796666Y-100004819D01*
X97987143Y-100100057D02*
X98749047Y-100100057D01*
X99463333Y-100004819D02*
X98987143Y-100004819D01*
X98987143Y-100004819D02*
X98987143Y-99004819D01*
X99796667Y-99481009D02*
X100130000Y-99481009D01*
X100272857Y-100004819D02*
X99796667Y-100004819D01*
X99796667Y-100004819D02*
X99796667Y-99004819D01*
X99796667Y-99004819D02*
X100272857Y-99004819D01*
X101034762Y-99481009D02*
X100701429Y-99481009D01*
X100701429Y-100004819D02*
X100701429Y-99004819D01*
X100701429Y-99004819D02*
X101177619Y-99004819D01*
X101415715Y-99004819D02*
X101987143Y-99004819D01*
X101701429Y-100004819D02*
X101701429Y-99004819D01*
X102844286Y-100004819D02*
X102272858Y-100004819D01*
X102558572Y-100004819D02*
X102558572Y-99004819D01*
X102558572Y-99004819D02*
X102463334Y-99147676D01*
X102463334Y-99147676D02*
X102368096Y-99242914D01*
X102368096Y-99242914D02*
X102272858Y-99290533D01*
X117688363Y-62042259D02*
X117831220Y-62089878D01*
X117831220Y-62089878D02*
X117878839Y-62137497D01*
X117878839Y-62137497D02*
X117926458Y-62232735D01*
X117926458Y-62232735D02*
X117926458Y-62375592D01*
X117926458Y-62375592D02*
X117878839Y-62470830D01*
X117878839Y-62470830D02*
X117831220Y-62518450D01*
X117831220Y-62518450D02*
X117735982Y-62566069D01*
X117735982Y-62566069D02*
X117355030Y-62566069D01*
X117355030Y-62566069D02*
X117355030Y-61566069D01*
X117355030Y-61566069D02*
X117688363Y-61566069D01*
X117688363Y-61566069D02*
X117783601Y-61613688D01*
X117783601Y-61613688D02*
X117831220Y-61661307D01*
X117831220Y-61661307D02*
X117878839Y-61756545D01*
X117878839Y-61756545D02*
X117878839Y-61851783D01*
X117878839Y-61851783D02*
X117831220Y-61947021D01*
X117831220Y-61947021D02*
X117783601Y-61994640D01*
X117783601Y-61994640D02*
X117688363Y-62042259D01*
X117688363Y-62042259D02*
X117355030Y-62042259D01*
X118688363Y-62042259D02*
X118831220Y-62089878D01*
X118831220Y-62089878D02*
X118878839Y-62137497D01*
X118878839Y-62137497D02*
X118926458Y-62232735D01*
X118926458Y-62232735D02*
X118926458Y-62375592D01*
X118926458Y-62375592D02*
X118878839Y-62470830D01*
X118878839Y-62470830D02*
X118831220Y-62518450D01*
X118831220Y-62518450D02*
X118735982Y-62566069D01*
X118735982Y-62566069D02*
X118355030Y-62566069D01*
X118355030Y-62566069D02*
X118355030Y-61566069D01*
X118355030Y-61566069D02*
X118688363Y-61566069D01*
X118688363Y-61566069D02*
X118783601Y-61613688D01*
X118783601Y-61613688D02*
X118831220Y-61661307D01*
X118831220Y-61661307D02*
X118878839Y-61756545D01*
X118878839Y-61756545D02*
X118878839Y-61851783D01*
X118878839Y-61851783D02*
X118831220Y-61947021D01*
X118831220Y-61947021D02*
X118783601Y-61994640D01*
X118783601Y-61994640D02*
X118688363Y-62042259D01*
X118688363Y-62042259D02*
X118355030Y-62042259D01*
X119926458Y-62566069D02*
X119593125Y-62089878D01*
X119355030Y-62566069D02*
X119355030Y-61566069D01*
X119355030Y-61566069D02*
X119735982Y-61566069D01*
X119735982Y-61566069D02*
X119831220Y-61613688D01*
X119831220Y-61613688D02*
X119878839Y-61661307D01*
X119878839Y-61661307D02*
X119926458Y-61756545D01*
X119926458Y-61756545D02*
X119926458Y-61899402D01*
X119926458Y-61899402D02*
X119878839Y-61994640D01*
X119878839Y-61994640D02*
X119831220Y-62042259D01*
X119831220Y-62042259D02*
X119735982Y-62089878D01*
X119735982Y-62089878D02*
X119355030Y-62089878D01*
X120878839Y-62566069D02*
X120307411Y-62566069D01*
X120593125Y-62566069D02*
X120593125Y-61566069D01*
X120593125Y-61566069D02*
X120497887Y-61708926D01*
X120497887Y-61708926D02*
X120402649Y-61804164D01*
X120402649Y-61804164D02*
X120307411Y-61851783D01*
X93487200Y-48386666D02*
X93534819Y-48243809D01*
X93534819Y-48243809D02*
X93534819Y-48005714D01*
X93534819Y-48005714D02*
X93487200Y-47910476D01*
X93487200Y-47910476D02*
X93439580Y-47862857D01*
X93439580Y-47862857D02*
X93344342Y-47815238D01*
X93344342Y-47815238D02*
X93249104Y-47815238D01*
X93249104Y-47815238D02*
X93153866Y-47862857D01*
X93153866Y-47862857D02*
X93106247Y-47910476D01*
X93106247Y-47910476D02*
X93058628Y-48005714D01*
X93058628Y-48005714D02*
X93011009Y-48196190D01*
X93011009Y-48196190D02*
X92963390Y-48291428D01*
X92963390Y-48291428D02*
X92915771Y-48339047D01*
X92915771Y-48339047D02*
X92820533Y-48386666D01*
X92820533Y-48386666D02*
X92725295Y-48386666D01*
X92725295Y-48386666D02*
X92630057Y-48339047D01*
X92630057Y-48339047D02*
X92582438Y-48291428D01*
X92582438Y-48291428D02*
X92534819Y-48196190D01*
X92534819Y-48196190D02*
X92534819Y-47958095D01*
X92534819Y-47958095D02*
X92582438Y-47815238D01*
X93011009Y-47386666D02*
X93011009Y-47053333D01*
X93534819Y-46910476D02*
X93534819Y-47386666D01*
X93534819Y-47386666D02*
X92534819Y-47386666D01*
X92534819Y-47386666D02*
X92534819Y-46910476D01*
X93534819Y-45910476D02*
X93058628Y-46243809D01*
X93534819Y-46481904D02*
X92534819Y-46481904D01*
X92534819Y-46481904D02*
X92534819Y-46100952D01*
X92534819Y-46100952D02*
X92582438Y-46005714D01*
X92582438Y-46005714D02*
X92630057Y-45958095D01*
X92630057Y-45958095D02*
X92725295Y-45910476D01*
X92725295Y-45910476D02*
X92868152Y-45910476D01*
X92868152Y-45910476D02*
X92963390Y-45958095D01*
X92963390Y-45958095D02*
X93011009Y-46005714D01*
X93011009Y-46005714D02*
X93058628Y-46100952D01*
X93058628Y-46100952D02*
X93058628Y-46481904D01*
X92534819Y-45624761D02*
X93534819Y-45291428D01*
X93534819Y-45291428D02*
X92534819Y-44958095D01*
X92534819Y-44434285D02*
X92534819Y-44243809D01*
X92534819Y-44243809D02*
X92582438Y-44148571D01*
X92582438Y-44148571D02*
X92677676Y-44053333D01*
X92677676Y-44053333D02*
X92868152Y-44005714D01*
X92868152Y-44005714D02*
X93201485Y-44005714D01*
X93201485Y-44005714D02*
X93391961Y-44053333D01*
X93391961Y-44053333D02*
X93487200Y-44148571D01*
X93487200Y-44148571D02*
X93534819Y-44243809D01*
X93534819Y-44243809D02*
X93534819Y-44434285D01*
X93534819Y-44434285D02*
X93487200Y-44529523D01*
X93487200Y-44529523D02*
X93391961Y-44624761D01*
X93391961Y-44624761D02*
X93201485Y-44672380D01*
X93201485Y-44672380D02*
X92868152Y-44672380D01*
X92868152Y-44672380D02*
X92677676Y-44624761D01*
X92677676Y-44624761D02*
X92582438Y-44529523D01*
X92582438Y-44529523D02*
X92534819Y-44434285D01*
X93534819Y-43053333D02*
X93534819Y-43624761D01*
X93534819Y-43339047D02*
X92534819Y-43339047D01*
X92534819Y-43339047D02*
X92677676Y-43434285D01*
X92677676Y-43434285D02*
X92772914Y-43529523D01*
X92772914Y-43529523D02*
X92820533Y-43624761D01*
X67587143Y-99481009D02*
X67920476Y-99481009D01*
X68063333Y-100004819D02*
X67587143Y-100004819D01*
X67587143Y-100004819D02*
X67587143Y-99004819D01*
X67587143Y-99004819D02*
X68063333Y-99004819D01*
X68444286Y-99957200D02*
X68587143Y-100004819D01*
X68587143Y-100004819D02*
X68825238Y-100004819D01*
X68825238Y-100004819D02*
X68920476Y-99957200D01*
X68920476Y-99957200D02*
X68968095Y-99909580D01*
X68968095Y-99909580D02*
X69015714Y-99814342D01*
X69015714Y-99814342D02*
X69015714Y-99719104D01*
X69015714Y-99719104D02*
X68968095Y-99623866D01*
X68968095Y-99623866D02*
X68920476Y-99576247D01*
X68920476Y-99576247D02*
X68825238Y-99528628D01*
X68825238Y-99528628D02*
X68634762Y-99481009D01*
X68634762Y-99481009D02*
X68539524Y-99433390D01*
X68539524Y-99433390D02*
X68491905Y-99385771D01*
X68491905Y-99385771D02*
X68444286Y-99290533D01*
X68444286Y-99290533D02*
X68444286Y-99195295D01*
X68444286Y-99195295D02*
X68491905Y-99100057D01*
X68491905Y-99100057D02*
X68539524Y-99052438D01*
X68539524Y-99052438D02*
X68634762Y-99004819D01*
X68634762Y-99004819D02*
X68872857Y-99004819D01*
X68872857Y-99004819D02*
X69015714Y-99052438D01*
X69444286Y-100004819D02*
X69444286Y-99004819D01*
X69444286Y-99004819D02*
X69825238Y-99004819D01*
X69825238Y-99004819D02*
X69920476Y-99052438D01*
X69920476Y-99052438D02*
X69968095Y-99100057D01*
X69968095Y-99100057D02*
X70015714Y-99195295D01*
X70015714Y-99195295D02*
X70015714Y-99338152D01*
X70015714Y-99338152D02*
X69968095Y-99433390D01*
X69968095Y-99433390D02*
X69920476Y-99481009D01*
X69920476Y-99481009D02*
X69825238Y-99528628D01*
X69825238Y-99528628D02*
X69444286Y-99528628D01*
X70349048Y-99004819D02*
X70968095Y-99004819D01*
X70968095Y-99004819D02*
X70634762Y-99385771D01*
X70634762Y-99385771D02*
X70777619Y-99385771D01*
X70777619Y-99385771D02*
X70872857Y-99433390D01*
X70872857Y-99433390D02*
X70920476Y-99481009D01*
X70920476Y-99481009D02*
X70968095Y-99576247D01*
X70968095Y-99576247D02*
X70968095Y-99814342D01*
X70968095Y-99814342D02*
X70920476Y-99909580D01*
X70920476Y-99909580D02*
X70872857Y-99957200D01*
X70872857Y-99957200D02*
X70777619Y-100004819D01*
X70777619Y-100004819D02*
X70491905Y-100004819D01*
X70491905Y-100004819D02*
X70396667Y-99957200D01*
X70396667Y-99957200D02*
X70349048Y-99909580D01*
X71349048Y-99100057D02*
X71396667Y-99052438D01*
X71396667Y-99052438D02*
X71491905Y-99004819D01*
X71491905Y-99004819D02*
X71730000Y-99004819D01*
X71730000Y-99004819D02*
X71825238Y-99052438D01*
X71825238Y-99052438D02*
X71872857Y-99100057D01*
X71872857Y-99100057D02*
X71920476Y-99195295D01*
X71920476Y-99195295D02*
X71920476Y-99290533D01*
X71920476Y-99290533D02*
X71872857Y-99433390D01*
X71872857Y-99433390D02*
X71301429Y-100004819D01*
X71301429Y-100004819D02*
X71920476Y-100004819D01*
X72110953Y-100100057D02*
X72872857Y-100100057D01*
X73682381Y-100004819D02*
X73349048Y-99528628D01*
X73110953Y-100004819D02*
X73110953Y-99004819D01*
X73110953Y-99004819D02*
X73491905Y-99004819D01*
X73491905Y-99004819D02*
X73587143Y-99052438D01*
X73587143Y-99052438D02*
X73634762Y-99100057D01*
X73634762Y-99100057D02*
X73682381Y-99195295D01*
X73682381Y-99195295D02*
X73682381Y-99338152D01*
X73682381Y-99338152D02*
X73634762Y-99433390D01*
X73634762Y-99433390D02*
X73587143Y-99481009D01*
X73587143Y-99481009D02*
X73491905Y-99528628D01*
X73491905Y-99528628D02*
X73110953Y-99528628D01*
X74110953Y-100004819D02*
X74110953Y-99004819D01*
X75110952Y-99052438D02*
X75015714Y-99004819D01*
X75015714Y-99004819D02*
X74872857Y-99004819D01*
X74872857Y-99004819D02*
X74730000Y-99052438D01*
X74730000Y-99052438D02*
X74634762Y-99147676D01*
X74634762Y-99147676D02*
X74587143Y-99242914D01*
X74587143Y-99242914D02*
X74539524Y-99433390D01*
X74539524Y-99433390D02*
X74539524Y-99576247D01*
X74539524Y-99576247D02*
X74587143Y-99766723D01*
X74587143Y-99766723D02*
X74634762Y-99861961D01*
X74634762Y-99861961D02*
X74730000Y-99957200D01*
X74730000Y-99957200D02*
X74872857Y-100004819D01*
X74872857Y-100004819D02*
X74968095Y-100004819D01*
X74968095Y-100004819D02*
X75110952Y-99957200D01*
X75110952Y-99957200D02*
X75158571Y-99909580D01*
X75158571Y-99909580D02*
X75158571Y-99576247D01*
X75158571Y-99576247D02*
X74968095Y-99576247D01*
X75587143Y-100004819D02*
X75587143Y-99004819D01*
X75587143Y-99481009D02*
X76158571Y-99481009D01*
X76158571Y-100004819D02*
X76158571Y-99004819D01*
X76491905Y-99004819D02*
X77063333Y-99004819D01*
X76777619Y-100004819D02*
X76777619Y-99004819D01*
X77920476Y-100004819D02*
X77349048Y-100004819D01*
X77634762Y-100004819D02*
X77634762Y-99004819D01*
X77634762Y-99004819D02*
X77539524Y-99147676D01*
X77539524Y-99147676D02*
X77444286Y-99242914D01*
X77444286Y-99242914D02*
X77349048Y-99290533D01*
X109290476Y-62042259D02*
X109433333Y-62089878D01*
X109433333Y-62089878D02*
X109480952Y-62137497D01*
X109480952Y-62137497D02*
X109528571Y-62232735D01*
X109528571Y-62232735D02*
X109528571Y-62375592D01*
X109528571Y-62375592D02*
X109480952Y-62470830D01*
X109480952Y-62470830D02*
X109433333Y-62518450D01*
X109433333Y-62518450D02*
X109338095Y-62566069D01*
X109338095Y-62566069D02*
X108957143Y-62566069D01*
X108957143Y-62566069D02*
X108957143Y-61566069D01*
X108957143Y-61566069D02*
X109290476Y-61566069D01*
X109290476Y-61566069D02*
X109385714Y-61613688D01*
X109385714Y-61613688D02*
X109433333Y-61661307D01*
X109433333Y-61661307D02*
X109480952Y-61756545D01*
X109480952Y-61756545D02*
X109480952Y-61851783D01*
X109480952Y-61851783D02*
X109433333Y-61947021D01*
X109433333Y-61947021D02*
X109385714Y-61994640D01*
X109385714Y-61994640D02*
X109290476Y-62042259D01*
X109290476Y-62042259D02*
X108957143Y-62042259D01*
X110290476Y-62042259D02*
X110433333Y-62089878D01*
X110433333Y-62089878D02*
X110480952Y-62137497D01*
X110480952Y-62137497D02*
X110528571Y-62232735D01*
X110528571Y-62232735D02*
X110528571Y-62375592D01*
X110528571Y-62375592D02*
X110480952Y-62470830D01*
X110480952Y-62470830D02*
X110433333Y-62518450D01*
X110433333Y-62518450D02*
X110338095Y-62566069D01*
X110338095Y-62566069D02*
X109957143Y-62566069D01*
X109957143Y-62566069D02*
X109957143Y-61566069D01*
X109957143Y-61566069D02*
X110290476Y-61566069D01*
X110290476Y-61566069D02*
X110385714Y-61613688D01*
X110385714Y-61613688D02*
X110433333Y-61661307D01*
X110433333Y-61661307D02*
X110480952Y-61756545D01*
X110480952Y-61756545D02*
X110480952Y-61851783D01*
X110480952Y-61851783D02*
X110433333Y-61947021D01*
X110433333Y-61947021D02*
X110385714Y-61994640D01*
X110385714Y-61994640D02*
X110290476Y-62042259D01*
X110290476Y-62042259D02*
X109957143Y-62042259D01*
X111433333Y-62566069D02*
X110957143Y-62566069D01*
X110957143Y-62566069D02*
X110957143Y-61566069D01*
X112290476Y-62566069D02*
X111719048Y-62566069D01*
X112004762Y-62566069D02*
X112004762Y-61566069D01*
X112004762Y-61566069D02*
X111909524Y-61708926D01*
X111909524Y-61708926D02*
X111814286Y-61804164D01*
X111814286Y-61804164D02*
X111719048Y-61851783D01*
X119366667Y-76624819D02*
X119366667Y-75624819D01*
X119366667Y-75624819D02*
X119700000Y-76339104D01*
X119700000Y-76339104D02*
X120033333Y-75624819D01*
X120033333Y-75624819D02*
X120033333Y-76624819D01*
X120509524Y-76624819D02*
X120509524Y-75624819D01*
X120509524Y-75624819D02*
X120747619Y-75624819D01*
X120747619Y-75624819D02*
X120890476Y-75672438D01*
X120890476Y-75672438D02*
X120985714Y-75767676D01*
X120985714Y-75767676D02*
X121033333Y-75862914D01*
X121033333Y-75862914D02*
X121080952Y-76053390D01*
X121080952Y-76053390D02*
X121080952Y-76196247D01*
X121080952Y-76196247D02*
X121033333Y-76386723D01*
X121033333Y-76386723D02*
X120985714Y-76481961D01*
X120985714Y-76481961D02*
X120890476Y-76577200D01*
X120890476Y-76577200D02*
X120747619Y-76624819D01*
X120747619Y-76624819D02*
X120509524Y-76624819D01*
X121271429Y-76720057D02*
X122033333Y-76720057D01*
X122842857Y-76624819D02*
X122509524Y-76148628D01*
X122271429Y-76624819D02*
X122271429Y-75624819D01*
X122271429Y-75624819D02*
X122652381Y-75624819D01*
X122652381Y-75624819D02*
X122747619Y-75672438D01*
X122747619Y-75672438D02*
X122795238Y-75720057D01*
X122795238Y-75720057D02*
X122842857Y-75815295D01*
X122842857Y-75815295D02*
X122842857Y-75958152D01*
X122842857Y-75958152D02*
X122795238Y-76053390D01*
X122795238Y-76053390D02*
X122747619Y-76101009D01*
X122747619Y-76101009D02*
X122652381Y-76148628D01*
X122652381Y-76148628D02*
X122271429Y-76148628D01*
X123271429Y-76624819D02*
X123271429Y-75624819D01*
X124271428Y-75672438D02*
X124176190Y-75624819D01*
X124176190Y-75624819D02*
X124033333Y-75624819D01*
X124033333Y-75624819D02*
X123890476Y-75672438D01*
X123890476Y-75672438D02*
X123795238Y-75767676D01*
X123795238Y-75767676D02*
X123747619Y-75862914D01*
X123747619Y-75862914D02*
X123700000Y-76053390D01*
X123700000Y-76053390D02*
X123700000Y-76196247D01*
X123700000Y-76196247D02*
X123747619Y-76386723D01*
X123747619Y-76386723D02*
X123795238Y-76481961D01*
X123795238Y-76481961D02*
X123890476Y-76577200D01*
X123890476Y-76577200D02*
X124033333Y-76624819D01*
X124033333Y-76624819D02*
X124128571Y-76624819D01*
X124128571Y-76624819D02*
X124271428Y-76577200D01*
X124271428Y-76577200D02*
X124319047Y-76529580D01*
X124319047Y-76529580D02*
X124319047Y-76196247D01*
X124319047Y-76196247D02*
X124128571Y-76196247D01*
X124747619Y-76624819D02*
X124747619Y-75624819D01*
X124747619Y-76101009D02*
X125319047Y-76101009D01*
X125319047Y-76624819D02*
X125319047Y-75624819D01*
X125652381Y-75624819D02*
X126223809Y-75624819D01*
X125938095Y-76624819D02*
X125938095Y-75624819D01*
X127080952Y-76624819D02*
X126509524Y-76624819D01*
X126795238Y-76624819D02*
X126795238Y-75624819D01*
X126795238Y-75624819D02*
X126700000Y-75767676D01*
X126700000Y-75767676D02*
X126604762Y-75862914D01*
X126604762Y-75862914D02*
X126509524Y-75910533D01*
X117807410Y-46961009D02*
X117950267Y-47008628D01*
X117950267Y-47008628D02*
X117997886Y-47056247D01*
X117997886Y-47056247D02*
X118045505Y-47151485D01*
X118045505Y-47151485D02*
X118045505Y-47294342D01*
X118045505Y-47294342D02*
X117997886Y-47389580D01*
X117997886Y-47389580D02*
X117950267Y-47437200D01*
X117950267Y-47437200D02*
X117855029Y-47484819D01*
X117855029Y-47484819D02*
X117474077Y-47484819D01*
X117474077Y-47484819D02*
X117474077Y-46484819D01*
X117474077Y-46484819D02*
X117807410Y-46484819D01*
X117807410Y-46484819D02*
X117902648Y-46532438D01*
X117902648Y-46532438D02*
X117950267Y-46580057D01*
X117950267Y-46580057D02*
X117997886Y-46675295D01*
X117997886Y-46675295D02*
X117997886Y-46770533D01*
X117997886Y-46770533D02*
X117950267Y-46865771D01*
X117950267Y-46865771D02*
X117902648Y-46913390D01*
X117902648Y-46913390D02*
X117807410Y-46961009D01*
X117807410Y-46961009D02*
X117474077Y-46961009D01*
X118331220Y-46484819D02*
X118902648Y-46484819D01*
X118616934Y-47484819D02*
X118616934Y-46484819D01*
X119807410Y-47484819D02*
X119474077Y-47008628D01*
X119235982Y-47484819D02*
X119235982Y-46484819D01*
X119235982Y-46484819D02*
X119616934Y-46484819D01*
X119616934Y-46484819D02*
X119712172Y-46532438D01*
X119712172Y-46532438D02*
X119759791Y-46580057D01*
X119759791Y-46580057D02*
X119807410Y-46675295D01*
X119807410Y-46675295D02*
X119807410Y-46818152D01*
X119807410Y-46818152D02*
X119759791Y-46913390D01*
X119759791Y-46913390D02*
X119712172Y-46961009D01*
X119712172Y-46961009D02*
X119616934Y-47008628D01*
X119616934Y-47008628D02*
X119235982Y-47008628D01*
X120759791Y-47484819D02*
X120188363Y-47484819D01*
X120474077Y-47484819D02*
X120474077Y-46484819D01*
X120474077Y-46484819D02*
X120378839Y-46627676D01*
X120378839Y-46627676D02*
X120283601Y-46722914D01*
X120283601Y-46722914D02*
X120188363Y-46770533D01*
D11*
%TO.C,BTL1*%
X109270000Y-51010000D02*
X109270000Y-51130000D01*
X109270000Y-51130000D02*
X111930000Y-51130000D01*
X110600000Y-48470000D02*
X111930000Y-48470000D01*
X111930000Y-48470000D02*
X111930000Y-49800000D01*
X111930000Y-51010000D02*
X111930000Y-51130000D01*
%TO.C,MD_LEFT1*%
X106630000Y-80210000D02*
X106630000Y-98050000D01*
X106630000Y-80210000D02*
X109290000Y-80210000D01*
X106630000Y-98050000D02*
X109290000Y-98050000D01*
X107960000Y-77610000D02*
X109290000Y-77610000D01*
X109290000Y-77610000D02*
X109290000Y-78940000D01*
X109290000Y-80210000D02*
X109290000Y-98050000D01*
%TO.C,ESP32_LEFT1*%
X96800000Y-95510000D02*
X96800000Y-59890000D01*
X96800000Y-98110000D02*
X96800000Y-96780000D01*
X98130000Y-98110000D02*
X96800000Y-98110000D01*
X99460000Y-59890000D02*
X96800000Y-59890000D01*
X99460000Y-95510000D02*
X96800000Y-95510000D01*
X99460000Y-95510000D02*
X99460000Y-59890000D01*
%TO.C,BBR1*%
X117763125Y-66091250D02*
X117763125Y-66211250D01*
X117763125Y-66211250D02*
X120423125Y-66211250D01*
X119093125Y-63551250D02*
X120423125Y-63551250D01*
X120423125Y-63551250D02*
X120423125Y-64881250D01*
X120423125Y-66091250D02*
X120423125Y-66211250D01*
%TO.C,SERVO1*%
X94520000Y-44660000D02*
X95580000Y-44660000D01*
X94520000Y-45720000D02*
X94520000Y-44660000D01*
X96580000Y-44660000D02*
X104640000Y-44660000D01*
X96580000Y-46780000D02*
X96580000Y-44660000D01*
X96580000Y-46780000D02*
X104640000Y-46780000D01*
X104640000Y-46780000D02*
X104640000Y-44660000D01*
%TO.C,ESP32_RIGHT1*%
X71400000Y-95510000D02*
X71400000Y-59890000D01*
X71400000Y-98110000D02*
X71400000Y-96780000D01*
X72730000Y-98110000D02*
X71400000Y-98110000D01*
X74060000Y-59890000D02*
X71400000Y-59890000D01*
X74060000Y-95510000D02*
X71400000Y-95510000D01*
X74060000Y-95510000D02*
X74060000Y-59890000D01*
%TO.C,BBL1*%
X109270000Y-66091250D02*
X109270000Y-66211250D01*
X109270000Y-66211250D02*
X111930000Y-66211250D01*
X110600000Y-63551250D02*
X111930000Y-63551250D01*
X111930000Y-63551250D02*
X111930000Y-64881250D01*
X111930000Y-66091250D02*
X111930000Y-66211250D01*
%TO.C,MD_RIGHT1*%
X121870000Y-80210000D02*
X121870000Y-98050000D01*
X121870000Y-80210000D02*
X124530000Y-80210000D01*
X121870000Y-98050000D02*
X124530000Y-98050000D01*
X123200000Y-77610000D02*
X124530000Y-77610000D01*
X124530000Y-77610000D02*
X124530000Y-78940000D01*
X124530000Y-80210000D02*
X124530000Y-98050000D01*
%TO.C,BTR1*%
X117763125Y-51010000D02*
X117763125Y-51130000D01*
X117763125Y-51130000D02*
X120423125Y-51130000D01*
X119093125Y-48470000D02*
X120423125Y-48470000D01*
X120423125Y-48470000D02*
X120423125Y-49800000D01*
X120423125Y-51010000D02*
X120423125Y-51130000D01*
%TD*%
M02*
