%TF.GenerationSoftware,KiCad,Pcbnew,9.0.7*%
%TF.CreationDate,2026-04-13T12:25:23-04:00*%
%TF.ProjectId,car,6361722e-6b69-4636-9164-5f7063625858,rev?*%
%TF.SameCoordinates,Original*%
%TF.FileFunction,Soldermask,Bot*%
%TF.FilePolarity,Negative*%
%FSLAX46Y46*%
G04 Gerber Fmt 4.6, Leading zero omitted, Abs format (unit mm)*
G04 Created by KiCad (PCBNEW 9.0.7) date 2026-04-13 12:25:23*
%MOMM*%
%LPD*%
G01*
G04 APERTURE LIST*
%ADD10R,1.700000X1.700000*%
%ADD11C,1.700000*%
%ADD12R,1.350000X1.350000*%
%ADD13C,1.350000*%
G04 APERTURE END LIST*
D10*
%TO.C,BTL1*%
X110600000Y-49800000D03*
%TD*%
%TO.C,MD_LEFT1*%
X107960000Y-78940000D03*
D11*
X107960000Y-81480000D03*
X107960000Y-84020000D03*
X107960000Y-86560000D03*
X107960000Y-89100000D03*
X107960000Y-91640000D03*
X107960000Y-94180000D03*
X107960000Y-96720000D03*
%TD*%
D10*
%TO.C,ESP32_LEFT1*%
X98130000Y-96780000D03*
D11*
X98130000Y-94240000D03*
X98130000Y-91700000D03*
X98130000Y-89160000D03*
X98130000Y-86620000D03*
X98130000Y-84080000D03*
X98130000Y-81540000D03*
X98130000Y-79000000D03*
X98130000Y-76460000D03*
X98130000Y-73920000D03*
X98130000Y-71380000D03*
X98130000Y-68840000D03*
X98130000Y-66300000D03*
X98130000Y-63760000D03*
X98130000Y-61220000D03*
%TD*%
D10*
%TO.C,BBR1*%
X119093125Y-64881250D03*
%TD*%
D12*
%TO.C,SERVO1*%
X95580000Y-45720000D03*
D13*
X97580000Y-45720000D03*
X99580000Y-45720000D03*
X101580000Y-45720000D03*
X103580000Y-45720000D03*
%TD*%
D10*
%TO.C,ESP32_RIGHT1*%
X72730000Y-96780000D03*
D11*
X72730000Y-94240000D03*
X72730000Y-91700000D03*
X72730000Y-89160000D03*
X72730000Y-86620000D03*
X72730000Y-84080000D03*
X72730000Y-81540000D03*
X72730000Y-79000000D03*
X72730000Y-76460000D03*
X72730000Y-73920000D03*
X72730000Y-71380000D03*
X72730000Y-68840000D03*
X72730000Y-66300000D03*
X72730000Y-63760000D03*
X72730000Y-61220000D03*
%TD*%
D10*
%TO.C,BBL1*%
X110600000Y-64881250D03*
%TD*%
%TO.C,MD_RIGHT1*%
X123200000Y-78940000D03*
D11*
X123200000Y-81480000D03*
X123200000Y-84020000D03*
X123200000Y-86560000D03*
X123200000Y-89100000D03*
X123200000Y-91640000D03*
X123200000Y-94180000D03*
X123200000Y-96720000D03*
%TD*%
D10*
%TO.C,BTR1*%
X119093125Y-49800000D03*
%TD*%
M02*
