M48
; DRILL file {KiCad 9.0.7} date 2026-04-13T12:25:33-0400
; FORMAT={-:-/ absolute / metric / decimal}
; #@! TF.CreationDate,2026-04-13T12:25:33-04:00
; #@! TF.GenerationSoftware,Kicad,Pcbnew,9.0.7
; #@! TF.FileFunction,Plated,1,2,PTH
FMAT,2
METRIC
; #@! TA.AperFunction,Plated,PTH,ComponentDrill
T1C0.800
; #@! TA.AperFunction,Plated,PTH,ComponentDrill
T2C1.000
%
G90
G05
T1
X95.58Y-45.72
X97.58Y-45.72
X99.58Y-45.72
X101.58Y-45.72
X103.58Y-45.72
T2
X72.73Y-61.22
X72.73Y-63.76
X72.73Y-66.3
X72.73Y-68.84
X72.73Y-71.38
X72.73Y-73.92
X72.73Y-76.46
X72.73Y-79.0
X72.73Y-81.54
X72.73Y-84.08
X72.73Y-86.62
X72.73Y-89.16
X72.73Y-91.7
X72.73Y-94.24
X72.73Y-96.78
X98.13Y-61.22
X98.13Y-63.76
X98.13Y-66.3
X98.13Y-68.84
X98.13Y-71.38
X98.13Y-73.92
X98.13Y-76.46
X98.13Y-79.0
X98.13Y-81.54
X98.13Y-84.08
X98.13Y-86.62
X98.13Y-89.16
X98.13Y-91.7
X98.13Y-94.24
X98.13Y-96.78
X107.96Y-78.94
X107.96Y-81.48
X107.96Y-84.02
X107.96Y-86.56
X107.96Y-89.1
X107.96Y-91.64
X107.96Y-94.18
X107.96Y-96.72
X110.6Y-49.8
X110.6Y-64.881
X119.093Y-49.8
X119.093Y-64.881
X123.2Y-78.94
X123.2Y-81.48
X123.2Y-84.02
X123.2Y-86.56
X123.2Y-89.1
X123.2Y-91.64
X123.2Y-94.18
X123.2Y-96.72
M30
